<svg xmlns="http://www.w3.org/2000/svg" viewBox="0 0 64 64">
  <defs>
    <linearGradient id="bg" x1="8" y1="8" x2="56" y2="56" gradientUnits="userSpaceOnUse">
      <stop stop-color="#0F172A" />
      <stop offset="0.48" stop-color="#2563EB" />
      <stop offset="1" stop-color="#7C3AED" />
    </linearGradient>
    <linearGradient id="shine" x1="18" y1="10" x2="42" y2="42" gradientUnits="userSpaceOnUse">
      <stop stop-color="#FFFFFF" stop-opacity="0.9" />
      <stop offset="1" stop-color="#FFFFFF" stop-opacity="0" />
    </linearGradient>
  </defs>
  <rect x="5" y="5" width="54" height="54" rx="16" fill="url(#bg)" />
  <path d="M16 18C20 13 27 11 34 13C43 15 50 22 51 31C52 42 44 51 32 51C21 51 13 44 13 34C13 29 15 25 19 22" fill="none" stroke="#FFFFFF" stroke-opacity="0.26" stroke-width="3" stroke-linecap="round" />
  <path d="M38 12L27 33H39L28 52" fill="none" stroke="#FFFFFF" stroke-width="5" stroke-linecap="round" stroke-linejoin="round" />
  <path d="M14 44L21 31H14L22 18" fill="none" stroke="#C7D2FE" stroke-width="3.5" stroke-linecap="round" stroke-linejoin="round" />
  <path d="M12 11H45C50 11 53 14 53 19V22C42 18 31 18 20 23C15 25 11 28 8 32V15C8 13 10 11 12 11Z" fill="url(#shine)" opacity="0.24" />
</svg>
